<mxfile host="app.diagrams.net" modified="2024-05-17T15:09:04.106Z" agent="Mozilla/5.0 (Windows NT 10.0; Win64; x64) AppleWebKit/537.36 (KHTML, like Gecko) Chrome/125.0.0.0 Safari/537.36" etag="qFqld3vLow-Ak3tTi7WP" version="24.4.4" type="google">
  <diagram name="PÃ¡gina-1" id="JynM5rXX0GK54_x-ZJID">
    <mxGraphModel grid="1" page="1" gridSize="10" guides="1" tooltips="1" connect="1" arrows="1" fold="1" pageScale="1" pageWidth="1169" pageHeight="827" math="0" shadow="0">
      <root>
        <mxCell id="0" />
        <mxCell id="1" parent="0" />
        <mxCell id="q0Z-rj-xLfWcZZcLGVyE-34" style="edgeStyle=orthogonalEdgeStyle;rounded=0;orthogonalLoop=1;jettySize=auto;html=1;entryX=0;entryY=0.5;entryDx=0;entryDy=0;" edge="1" parent="1" source="1T6MPeweJr3BxvkpQle7-1" target="q0Z-rj-xLfWcZZcLGVyE-11">
          <mxGeometry relative="1" as="geometry" />
        </mxCell>
        <mxCell id="1T6MPeweJr3BxvkpQle7-1" value="&lt;span style=&quot;text-wrap: wrap;&quot;&gt;&lt;b&gt;Asesor&lt;/b&gt;&lt;/span&gt;" style="shape=umlActor;verticalLabelPosition=bottom;verticalAlign=top;html=1;outlineConnect=0;" vertex="1" parent="1">
          <mxGeometry x="220" y="310" width="130" height="290" as="geometry" />
        </mxCell>
        <mxCell id="q0Z-rj-xLfWcZZcLGVyE-7" value="Gestion de productos" style="swimlane;whiteSpace=wrap;html=1;" vertex="1" parent="1">
          <mxGeometry x="542" y="220" width="323" height="450" as="geometry" />
        </mxCell>
        <mxCell id="q0Z-rj-xLfWcZZcLGVyE-8" style="edgeStyle=orthogonalEdgeStyle;rounded=0;orthogonalLoop=1;jettySize=auto;html=1;exitX=1;exitY=0.5;exitDx=0;exitDy=0;entryX=0;entryY=0.5;entryDx=0;entryDy=0;dashed=1;dashPattern=8 8;" edge="1" parent="q0Z-rj-xLfWcZZcLGVyE-7" source="q0Z-rj-xLfWcZZcLGVyE-9" target="q0Z-rj-xLfWcZZcLGVyE-14">
          <mxGeometry relative="1" as="geometry" />
        </mxCell>
        <mxCell id="q0Z-rj-xLfWcZZcLGVyE-9" value="&lt;font size=&quot;1&quot;&gt;Crear producto&lt;/font&gt;" style="ellipse;whiteSpace=wrap;html=1;" vertex="1" parent="q0Z-rj-xLfWcZZcLGVyE-7">
          <mxGeometry x="40" y="30" width="120" height="80" as="geometry" />
        </mxCell>
        <mxCell id="q0Z-rj-xLfWcZZcLGVyE-10" value="Modificar producto" style="ellipse;whiteSpace=wrap;html=1;" vertex="1" parent="q0Z-rj-xLfWcZZcLGVyE-7">
          <mxGeometry x="40" y="250" width="120" height="80" as="geometry" />
        </mxCell>
        <mxCell id="q0Z-rj-xLfWcZZcLGVyE-11" value="Consultar producto" style="ellipse;whiteSpace=wrap;html=1;" vertex="1" parent="q0Z-rj-xLfWcZZcLGVyE-7">
          <mxGeometry x="40" y="140" width="120" height="80" as="geometry" />
        </mxCell>
        <mxCell id="q0Z-rj-xLfWcZZcLGVyE-12" style="edgeStyle=orthogonalEdgeStyle;rounded=0;orthogonalLoop=1;jettySize=auto;html=1;entryX=0.5;entryY=0;entryDx=0;entryDy=0;dashed=1;" edge="1" parent="q0Z-rj-xLfWcZZcLGVyE-7" source="q0Z-rj-xLfWcZZcLGVyE-13" target="q0Z-rj-xLfWcZZcLGVyE-11">
          <mxGeometry relative="1" as="geometry">
            <Array as="points">
              <mxPoint x="207" y="394" />
              <mxPoint x="207" y="120" />
              <mxPoint x="100" y="120" />
            </Array>
          </mxGeometry>
        </mxCell>
        <mxCell id="q0Z-rj-xLfWcZZcLGVyE-13" value="Eliminar producto" style="ellipse;whiteSpace=wrap;html=1;" vertex="1" parent="q0Z-rj-xLfWcZZcLGVyE-7">
          <mxGeometry x="40" y="350" width="120" height="80" as="geometry" />
        </mxCell>
        <mxCell id="q0Z-rj-xLfWcZZcLGVyE-14" value="Validar Datos" style="ellipse;whiteSpace=wrap;html=1;" vertex="1" parent="q0Z-rj-xLfWcZZcLGVyE-7">
          <mxGeometry x="202" y="34" width="109" height="72" as="geometry" />
        </mxCell>
        <mxCell id="q0Z-rj-xLfWcZZcLGVyE-15" value="include" style="text;html=1;align=center;verticalAlign=middle;resizable=0;points=[];autosize=1;strokeColor=none;fillColor=none;" vertex="1" parent="q0Z-rj-xLfWcZZcLGVyE-7">
          <mxGeometry x="155" y="369" width="56" height="26" as="geometry" />
        </mxCell>
        <mxCell id="q0Z-rj-xLfWcZZcLGVyE-16" value="Gestion de pedidos" style="swimlane;whiteSpace=wrap;html=1;" vertex="1" parent="1">
          <mxGeometry x="530" y="760" width="333" height="450" as="geometry" />
        </mxCell>
        <mxCell id="q0Z-rj-xLfWcZZcLGVyE-17" style="edgeStyle=orthogonalEdgeStyle;rounded=0;orthogonalLoop=1;jettySize=auto;html=1;exitX=1;exitY=0.5;exitDx=0;exitDy=0;entryX=0.5;entryY=0;entryDx=0;entryDy=0;dashed=1;dashPattern=8 8;" edge="1" parent="q0Z-rj-xLfWcZZcLGVyE-16" source="q0Z-rj-xLfWcZZcLGVyE-18" target="q0Z-rj-xLfWcZZcLGVyE-25">
          <mxGeometry relative="1" as="geometry" />
        </mxCell>
        <mxCell id="q0Z-rj-xLfWcZZcLGVyE-18" value="&lt;font size=&quot;1&quot;&gt;Crear pedido&lt;/font&gt;" style="ellipse;whiteSpace=wrap;html=1;" vertex="1" parent="q0Z-rj-xLfWcZZcLGVyE-16">
          <mxGeometry x="40" y="30" width="120" height="80" as="geometry" />
        </mxCell>
        <mxCell id="q0Z-rj-xLfWcZZcLGVyE-19" style="edgeStyle=orthogonalEdgeStyle;rounded=0;orthogonalLoop=1;jettySize=auto;html=1;exitX=1;exitY=0.5;exitDx=0;exitDy=0;entryX=0;entryY=1;entryDx=0;entryDy=0;dashed=1;dashPattern=8 8;" edge="1" parent="q0Z-rj-xLfWcZZcLGVyE-16" source="q0Z-rj-xLfWcZZcLGVyE-22" target="q0Z-rj-xLfWcZZcLGVyE-25">
          <mxGeometry relative="1" as="geometry">
            <Array as="points">
              <mxPoint x="160" y="221" />
              <mxPoint x="214" y="221" />
            </Array>
          </mxGeometry>
        </mxCell>
        <mxCell id="q0Z-rj-xLfWcZZcLGVyE-20" style="edgeStyle=orthogonalEdgeStyle;rounded=0;orthogonalLoop=1;jettySize=auto;html=1;exitX=1;exitY=1;exitDx=0;exitDy=0;entryX=0;entryY=0.5;entryDx=0;entryDy=0;dashed=1;dashPattern=8 8;" edge="1" parent="q0Z-rj-xLfWcZZcLGVyE-16" source="q0Z-rj-xLfWcZZcLGVyE-22" target="q0Z-rj-xLfWcZZcLGVyE-26">
          <mxGeometry relative="1" as="geometry" />
        </mxCell>
        <mxCell id="q0Z-rj-xLfWcZZcLGVyE-21" style="edgeStyle=orthogonalEdgeStyle;rounded=0;orthogonalLoop=1;jettySize=auto;html=1;exitX=0.5;exitY=0;exitDx=0;exitDy=0;entryX=0.5;entryY=1;entryDx=0;entryDy=0;dashed=1;dashPattern=8 8;" edge="1" parent="q0Z-rj-xLfWcZZcLGVyE-16" source="q0Z-rj-xLfWcZZcLGVyE-22" target="q0Z-rj-xLfWcZZcLGVyE-23">
          <mxGeometry relative="1" as="geometry" />
        </mxCell>
        <mxCell id="q0Z-rj-xLfWcZZcLGVyE-22" value="Modificar pedido" style="ellipse;whiteSpace=wrap;html=1;" vertex="1" parent="q0Z-rj-xLfWcZZcLGVyE-16">
          <mxGeometry x="40" y="250" width="120" height="80" as="geometry" />
        </mxCell>
        <mxCell id="q0Z-rj-xLfWcZZcLGVyE-23" value="Consultar Pedido" style="ellipse;whiteSpace=wrap;html=1;" vertex="1" parent="q0Z-rj-xLfWcZZcLGVyE-16">
          <mxGeometry x="40" y="140" width="120" height="80" as="geometry" />
        </mxCell>
        <mxCell id="q0Z-rj-xLfWcZZcLGVyE-24" value="Eliminar pedido" style="ellipse;whiteSpace=wrap;html=1;" vertex="1" parent="q0Z-rj-xLfWcZZcLGVyE-16">
          <mxGeometry x="40" y="350" width="120" height="80" as="geometry" />
        </mxCell>
        <mxCell id="q0Z-rj-xLfWcZZcLGVyE-25" value="&lt;font size=&quot;1&quot;&gt;detalles de pedido&lt;/font&gt;" style="ellipse;whiteSpace=wrap;html=1;" vertex="1" parent="q0Z-rj-xLfWcZZcLGVyE-16">
          <mxGeometry x="196" y="82" width="120" height="80" as="geometry" />
        </mxCell>
        <mxCell id="q0Z-rj-xLfWcZZcLGVyE-26" value="&lt;font size=&quot;1&quot;&gt;Quitar detlles&lt;/font&gt;" style="ellipse;whiteSpace=wrap;html=1;" vertex="1" parent="q0Z-rj-xLfWcZZcLGVyE-16">
          <mxGeometry x="206" y="276" width="120" height="80" as="geometry" />
        </mxCell>
        <mxCell id="q0Z-rj-xLfWcZZcLGVyE-27" value="extend" style="text;html=1;align=center;verticalAlign=middle;resizable=0;points=[];autosize=1;strokeColor=none;fillColor=none;" vertex="1" parent="q0Z-rj-xLfWcZZcLGVyE-16">
          <mxGeometry x="158" y="290" width="54" height="26" as="geometry" />
        </mxCell>
        <mxCell id="q0Z-rj-xLfWcZZcLGVyE-28" value="include" style="text;html=1;align=center;verticalAlign=middle;resizable=0;points=[];autosize=1;strokeColor=none;fillColor=none;" vertex="1" parent="q0Z-rj-xLfWcZZcLGVyE-16">
          <mxGeometry x="38" y="224" width="56" height="26" as="geometry" />
        </mxCell>
        <mxCell id="q0Z-rj-xLfWcZZcLGVyE-29" value="include" style="text;html=1;align=center;verticalAlign=middle;resizable=0;points=[];autosize=1;strokeColor=none;fillColor=none;" vertex="1" parent="q0Z-rj-xLfWcZZcLGVyE-16">
          <mxGeometry x="183" y="34" width="56" height="26" as="geometry" />
        </mxCell>
        <mxCell id="q0Z-rj-xLfWcZZcLGVyE-30" value="include" style="text;html=1;align=center;verticalAlign=middle;resizable=0;points=[];autosize=1;strokeColor=none;fillColor=none;" vertex="1" parent="1">
          <mxGeometry x="694" y="266" width="56" height="26" as="geometry" />
        </mxCell>
        <mxCell id="q0Z-rj-xLfWcZZcLGVyE-31" style="edgeStyle=orthogonalEdgeStyle;rounded=0;orthogonalLoop=1;jettySize=auto;html=1;exitX=1;exitY=0.5;exitDx=0;exitDy=0;entryX=1;entryY=0.5;entryDx=0;entryDy=0;dashed=1;dashPattern=8 8;" edge="1" parent="1" source="q0Z-rj-xLfWcZZcLGVyE-25" target="q0Z-rj-xLfWcZZcLGVyE-11">
          <mxGeometry relative="1" as="geometry">
            <Array as="points">
              <mxPoint x="919" y="882" />
              <mxPoint x="919" y="400" />
            </Array>
          </mxGeometry>
        </mxCell>
        <mxCell id="q0Z-rj-xLfWcZZcLGVyE-32" style="edgeStyle=orthogonalEdgeStyle;rounded=0;orthogonalLoop=1;jettySize=auto;html=1;exitX=1;exitY=0.5;exitDx=0;exitDy=0;entryX=1;entryY=1;entryDx=0;entryDy=0;dashed=1;dashPattern=8 8;" edge="1" parent="1" source="q0Z-rj-xLfWcZZcLGVyE-26" target="q0Z-rj-xLfWcZZcLGVyE-11">
          <mxGeometry relative="1" as="geometry">
            <Array as="points">
              <mxPoint x="883" y="1077" />
              <mxPoint x="883" y="428" />
            </Array>
          </mxGeometry>
        </mxCell>
        <mxCell id="q0Z-rj-xLfWcZZcLGVyE-33" value="extend" style="text;html=1;align=center;verticalAlign=middle;resizable=0;points=[];autosize=1;strokeColor=none;fillColor=none;" vertex="1" parent="1">
          <mxGeometry x="684" y="956" width="54" height="26" as="geometry" />
        </mxCell>
      </root>
    </mxGraphModel>
  </diagram>
</mxfile>
